<?xml version="1.0" encoding="UTF-8"?>
<!DOCTYPE svg PUBLIC "-//W3C//DTD SVG 1.1//EN" "http://www.w3.org/Graphics/SVG/1.1/DTD/svg11.dtd">
<!-- Creator: CorelDRAW 2021.5 -->
<svg xmlns="http://www.w3.org/2000/svg" xml:space="preserve" width="362px" height="302px" version="1.1" style="shape-rendering:geometricPrecision; text-rendering:geometricPrecision; image-rendering:optimizeQuality; fill-rule:evenodd; clip-rule:evenodd"
viewBox="0 0 362 302"
 xmlns:xlink="http://www.w3.org/1999/xlink"
 xmlns:xodm="http://www.corel.com/coreldraw/odm/2003">
 <defs>
  <style type="text/css">
   <![CDATA[
    .fil1 {fill:#7F7D27}
    .fil0 {fill:#262627}
   ]]>
  </style>
 </defs>
 <g id="Layer_x0020_1">
  <metadata id="CorelCorpID_0Corel-Layer"/>
  <g id="_1117582064">
   <path class="fil0" d="M98.42 122.4c0.45,-0.61 0.35,-1.17 -0.36,-1.63 -1.52,-1.16 -2.69,-2.33 -3.65,-3.5 -5.68,-7.15 1.62,-17.19 7.51,-21.71l26.78 -20.8c1.17,-1.06 2.34,-2.13 3.45,-3.2 1.17,-1.36 1.83,-0.5 1.42,0.87l-4.26 19.83c-0.76,4.32 -1.57,8.58 -2.38,12.89 -1.78,9.99 -7.86,15.42 -18.77,17.2 -1.68,0.3 -3.45,0.45 -5.43,0 -0.66,-0.21 -1.17,-0.11 -1.57,0.35l-1.42 2.95c-0.77,1.11 -3.15,0.1 -2.69,-0.97l1.37 -2.28z"/>
   <path class="fil0" d="M30.23 79.99c-0.5,0.1 -0.81,0.35 -0.91,0.71l-0.51 1.77c-0.05,0.36 0.31,0.92 0.97,0.26l1.16 -1.58c0.56,-0.66 0.36,-0.86 -0.05,-1.11l-0.66 -0.05zm1.47 -1.68c-0.25,0.66 0.16,0.92 0.77,0.66l1.57 -1.06c0.3,-0.31 0.1,-1.22 -0.61,-1.17 -0.66,0.25 -1.27,0.76 -1.73,1.57zm0.71 7.26c-1.87,0.1 -3.8,-0.16 -5.32,-0.82 -0.56,-0.25 -0.51,-0.25 -0.97,-0.96 -0.66,-0.91 0,-2.74 1.98,-4.41 0.61,-0.51 1.22,-0.71 1.93,-0.51 0.05,-0.91 0.61,-1.88 1.73,-2.59 1.92,-1.32 2.43,-1.52 4.36,-0.3 2.64,0.71 3.4,2.33 1.88,4.36l-2.24 2.69c-1.11,2.33 0.26,3.65 3.15,4.11 0.96,0.2 0.4,0.51 -2.08,0.71 -1.42,0.05 -2.59,-0.76 -3.65,-1.98 -0.36,-0.46 -0.21,-0.35 -0.77,-0.3z"/>
   <path class="fil0" d="M71.22 1c1.27,1.62 1.43,3.8 2.89,5.27 5.38,5.64 10.96,15.73 10.76,24.31 1.32,12.53 -0.91,23.23 -6.75,32.41 -4.76,6.9 -11.77,9.64 -20.75,8.93l1.07 -1.72 2.54 0.05 2.43 -2.84c-7.86,-3.25 -10.96,-15.02 -7.3,-22.94 0.96,-1.72 4.51,-8.72 7.71,-17.65 1.62,-4.72 2.69,-9.69 4.06,-14.76 1.06,-3.76 2.43,-7.71 3.34,-11.06z"/>
   <path class="fil1" d="M70.82 5.01c0.2,-0.66 0.81,-1.47 0.66,0.61 -0.56,5.98 -1.47,11.92 -2.64,17.6 -0.2,0.51 -0.46,0.61 -0.76,0.25l-1.37 -1.82c-0.25,-0.41 -0.15,-0.82 0,-1.42l2.33 -9.44 1.78 -5.78z"/>
   <path class="fil1" d="M72.19 8.51c0.2,-1.63 0.5,-1.83 1.06,-1.02 0.77,1.27 1.68,2.08 1.37,3.81 -0.71,5.02 -2.23,10.04 -3.65,15.06 -0.15,0.51 -0.35,0.77 -0.81,0.41 -0.66,-0.71 -0.81,-0.81 -0.66,-1.67 1.01,-5.58 1.93,-11.06 2.69,-16.59z"/>
   <path class="fil1" d="M76.5 11.6c0.81,0.81 1.42,1.57 1.72,2.39 0.21,0.4 0.21,0.55 0.16,0.81 -1.47,5.43 -3.45,10.04 -5.63,14.25 -0.21,0.36 -0.31,0.36 -0.51,0.16l-0.86 -1.32c-0.16,-0.16 0,-0.41 0.15,-0.71 1.47,-3.2 2.64,-8.63 4.36,-15.48 0.2,-0.45 0.41,-0.25 0.61,-0.1z"/>
   <path class="fil1" d="M79.34 16.57c0.21,-0.4 0.36,-0.25 0.56,-0.1 0.56,0.76 0.96,1.52 1.17,2.28 0.05,0.56 -0.16,1.12 -0.36,1.63 -1.62,3.65 -3.5,7.35 -5.48,11.01 -0.3,0.55 -0.51,0.76 -0.91,0.3 -0.26,-0.25 -0.46,-0.56 -0.71,-0.81 -0.2,-0.25 -0.25,-0.66 0.25,-1.73 1.83,-4.16 3.71,-8.42 5.48,-12.58z"/>
   <path class="fil1" d="M81.98 21.6c0.36,0.86 0.56,1.77 0.66,2.69 0.05,0.4 0.05,0.35 -0.1,0.71l-5.53 10.7c-0.21,0.41 -0.26,0.35 -0.41,-0.05 -0.25,-0.71 -0.51,-1.17 -0.91,-1.73 -0.2,-0.35 -0.2,-0.2 0,-0.61 1.88,-3.85 3.8,-7.76 5.73,-11.61 0.31,-0.71 0.25,-0.92 0.56,-0.1z"/>
   <path class="fil1" d="M83.5 27.53c0.25,0.76 0.2,1.78 0,2.94 -0.1,0.31 -0.15,0.46 -0.25,0.77 -1.47,3.29 -2.95,6.13 -4.57,8.62 -0.56,0.81 -0.76,0.96 -1.17,-0.3 -0.25,-0.87 -0.05,-1.93 0.41,-3.2 1.37,-3.1 2.89,-6.14 4.67,-9.08 0.51,-0.81 0.56,-0.97 0.91,0.25z"/>
   <path class="fil1" d="M83.45 33.06c0.36,-0.61 0.66,-0.56 0.81,0.05 0.21,1.67 0.26,3.4 0.21,5.12 -0.06,0.46 -0.26,0.87 -0.51,1.12 -1.93,1.68 -3.86,2.89 -5.78,3.96 -0.36,0.1 -0.46,-0.36 -0.36,-0.56 1.98,-2.79 3.91,-5.88 5.63,-9.69z"/>
   <path class="fil1" d="M84.36 41.33c-0.15,-0.41 -0.1,-0.36 -0.45,-0.1l-6.09 3.8c-0.71,0.46 -0.61,1.12 -0.2,1.22 1.62,0.36 3.6,-0.15 5.68,-0.81 0.56,-0.2 0.66,-0.76 0.86,-1.42 0.25,-0.97 0.36,-1.88 0.2,-2.69z"/>
   <path class="fil1" d="M77.16 48.18c1.88,-0.15 3.8,-0.36 5.88,-0.76 0.36,-0.1 0.36,-0.15 0.36,0.15 0,0.81 -0.15,1.52 -0.41,2.23 -0.05,0.26 -0.05,0.2 -0.3,0.2 -2.08,0.16 -4.06,0.21 -5.99,0 -0.25,-0.05 -0.25,0 -0.3,-0.3 -0.05,-0.41 -0.05,-0.91 0.2,-1.27 0.15,-0.25 0.2,-0.25 0.56,-0.25z"/>
   <path class="fil1" d="M75.89 52.09c2.03,-0.26 4.82,-0.51 6.19,-0.46 0.46,0 0.46,0 0.36,0.3 -0.41,0.97 -0.66,1.73 -1.22,2.44 -0.26,0.25 -0.26,0.2 -0.61,0.25 -1.98,0.05 -3.91,0.05 -5.78,-0.05 -0.41,0 -0.36,0.05 -0.26,-0.25 0.26,-0.66 0.51,-1.37 0.92,-2.03 0.15,-0.2 0.15,-0.15 0.4,-0.2z"/>
   <path class="fil1" d="M74.06 56.6c1.93,0.35 4.01,0.56 6.04,0.41 0.61,-0.06 0.56,-0.11 0.26,0.5 -0.26,0.61 -0.66,1.27 -1.07,1.88 -0.25,0.41 -0.2,0.3 -0.66,0.25 -2.28,-0.2 -4.57,-0.65 -6.34,-1.47 -0.41,-0.15 -0.41,-0.1 -0.1,-0.4 0.4,-0.41 0.81,-0.76 1.32,-1.12 0.25,-0.15 0.2,-0.15 0.55,-0.05z"/>
   <path class="fil1" d="M71.88 60.35c1.63,0.51 3.3,1.02 4.98,1.43 0.86,0.2 0.86,0.05 0.3,0.91 -0.15,0.25 -0.35,0.46 -0.51,0.66 -0.61,0.66 -0.61,0.61 -1.42,0.51 -1.77,-0.21 -3.35,-0.66 -4.66,-1.42 -0.46,-0.31 -0.56,-0.26 -0.41,-0.82 0.1,-0.45 0.35,-0.81 0.76,-1.17 0.46,-0.4 0.4,-0.3 0.96,-0.1z"/>
   <path class="fil1" d="M66.46 65.28c0.35,-0.56 0.96,-1.43 1.47,-1.27 0.76,0.2 1.77,0.45 2.89,0.76 1.17,0.25 3.3,0.66 3.65,0.96 0.36,0.31 -2.54,3.05 -2.64,2.29 -0.05,-0.77 -0.66,-1.43 -2.08,-1.53 -1.01,-0.1 -2.23,-0.2 -2.99,-0.4 -0.66,-0.21 -0.61,-0.26 -0.3,-0.81z"/>
   <path class="fil1" d="M64.38 68.17l-1.88 2.13c-0.46,0.51 -0.56,0.45 0.2,0.45 2.38,0 4.72,-0.61 7.05,-1.52 1.32,-0.56 1.12,-0.45 -0.2,-0.66l-3.91 -0.61c-0.5,-0.1 -0.91,-0.15 -1.26,0.21z"/>
   <path class="fil1" d="M65.19 25.25c0.45,-1.17 0.71,-1.32 1.37,-0.2l7.45 10.34c2.14,3.25 2.69,6.55 1.73,10.05 -1.83,7.56 -5.48,13.34 -9.79,18.72 -1.27,1.83 -4.06,1.57 -6.04,-0.36 -3.55,-4.31 -5.48,-11.11 -3.96,-16.48 1.37,-5.18 9.09,-17.05 9.24,-22.07z"/>
   <path class="fil0" d="M59.51 71.56l-9.39 10.71c-6.49,7.51 -5.53,13.39 4.57,17.96 31.85,11.92 43.02,31.55 42.86,66.2 3.45,57.02 16.49,81.12 31.96,97.86 2.08,2.59 4.06,3.2 5.84,1.83l2.48 -2.03c2.49,-1.77 2.64,-4.26 1.12,-7.2 -9.44,-20.8 -0.4,-53.27 17.25,-86.86l-2.13 -2.79c-14.76,27.45 -22.93,52.71 -23.44,71.84 -1.12,2.48 -2.13,2.69 -3.4,2.28 -4.87,-6.09 -8.88,-12.22 -13.59,-23.44 -4.77,-11.16 -9.03,-27.85 -10.91,-46.67 -1.67,-53.82 -17.1,-63.97 -44.19,-73.46 -7.3,-2.23 -10.65,-5.53 -10.5,-9.23 0.15,-2.43 7.41,-10.7 11.87,-16.34 0.91,-1.11 -1.37,0.51 -0.4,-0.66z"/>
   <path class="fil0" d="M72.7 124.58c1.26,-0.56 2.99,0.71 3.85,2.74 0.91,2.08 0.56,4.16 -0.66,4.72 -1.27,0.5 -3.04,-0.71 -3.91,-2.74 -0.86,-2.08 -0.55,-4.21 0.72,-4.72z"/>
   <path class="fil0" d="M83.45 159.79c0.36,-0.51 0.86,-1.63 1.47,-2.08 0.56,-0.41 1.27,0.25 2.03,0.45 0.66,0.16 0.91,0.81 1.07,0.97 0.2,0.4 0.3,0.81 0.3,1.22 -1.01,3.85 -1.32,8.26 -0.66,8.77 1.07,0.81 0.05,1.37 -0.91,0.15 -1.93,-2.38 -3.1,-5.02 -3.6,-8.77 -0.05,-0.56 0,-0.31 0.3,-0.71z"/>
   <path class="fil1" d="M100.04 118.69c9.03,-12.07 17.15,-24.8 24.4,-38.15 0.46,-0.71 -0.35,-1.06 -1.42,-0.2 -14.76,11.26 -23.33,18.72 -24.55,20.45 -6.6,7.66 -4.87,15.06 0.66,18.21 0.61,0.35 0.45,0.3 0.91,-0.31z"/>
   <path class="fil1" d="M123.02 86.78c1.27,-2.63 3.81,-7.6 5.02,-8.57 0.46,-0.36 1.02,-0.71 1.63,-0.96 0.61,-0.31 0.5,-0.36 0.71,0.45 0.35,1.32 -0.21,3.61 -0.76,4.92 -0.2,0.46 -0.46,0.71 -0.71,1.02 -1.27,1.67 -3.3,2.74 -5.38,3.8 -1.27,0.61 -1.07,0.56 -0.51,-0.66z"/>
   <path class="fil1" d="M121.14 90.29c2.44,-0.97 4.47,-2.09 6.29,-3.2 0.56,-0.36 0.82,-0.66 0.97,0.15 0.05,0.66 -0.15,1.42 -0.71,2.38 -0.31,0.61 -0.31,0.56 -0.86,0.87 -2.34,1.37 -4.72,2.48 -7.16,3.5 -0.96,0.4 -0.81,0.4 -0.35,-0.51 0.4,-0.81 0.81,-1.62 1.11,-2.44 0.26,-0.6 0.11,-0.5 0.71,-0.75z"/>
   <path class="fil1" d="M114.85 100.43c-0.15,-0.1 1.43,-2.59 1.68,-2.74 3.04,-1.57 6.09,-3.14 9.13,-4.77 0.76,-0.35 0.81,-0.61 0.91,0.26 0.1,0.91 0,1.87 -0.3,2.89 -0.2,0.71 -0.15,0.56 -0.86,0.86 -3.51,1.42 -7.06,2.59 -10.56,3.5z"/>
   <path class="fil1" d="M111.45 105.71c-0.96,1.06 -0.76,1.82 0.36,1.37 3.96,-1.63 7.96,-3 12.07,-4.06 0.51,-0.15 0.46,-0.05 0.76,-0.46 0.72,-1.01 0.92,-2.08 0.87,-3.14 -0.05,-0.87 -0.05,-0.71 -0.87,-0.46 -5.68,1.52 -10.65,3.55 -13.19,6.75z"/>
   <path class="fil1" d="M110.14 109.71l13.54 -5.12c0.91,-0.3 1.17,-0.61 1.07,0.36 -0.05,0.55 -0.21,1.11 -0.46,1.72 -0.46,1.07 -0.56,0.86 -1.62,1.17 -3,0.81 -5.74,1.93 -8.38,3.35 -2.23,1.32 -4.51,2.23 -6.79,2.79 -1.37,0.35 -1.52,0.5 -0.71,-0.92 0.4,-0.76 0.86,-1.67 1.72,-2.33 0.76,-0.56 0.76,-0.71 1.63,-1.02z"/>
   <path class="fil1" d="M103.59 119c0.36,-0.46 0.76,-0.86 1.22,-1.27 0.61,-0.46 0.76,-0.41 1.47,-0.56 3.7,-0.81 7.56,-2.69 10.65,-5.22 1.58,-1.27 3.35,-2.13 5.18,-2.74 1.37,-0.41 1.47,-0.41 0.81,1.06 -3.35,7.36 -9.94,11.06 -18.42,10.35 -1.62,-0.1 -1.98,0 -0.91,-1.62z"/>
   <path class="fil0" d="M63.77 121.28c0.35,-1.12 -1.58,-1.93 -2.03,-1.06l-0.46 1.32c-0.25,0.35 -0.51,0.65 -0.81,0.35 -23.95,-16.03 -37.64,-10.35 -46.17,6.95 -2.53,5.12 -6.19,11.06 -10.19,16.24 -0.31,0.35 -0.21,0.3 -0.66,0.4 -1.68,0.56 -2.34,1.78 0.71,4.01 15.37,10.09 34.65,2.03 54.33,-20.75l0.91 -0.05c0.66,-0.05 0.51,0.05 0.87,-0.51 1.32,-2.18 2.53,-4.46 3.5,-6.9z"/>
   <path class="fil1" d="M57.07 125.75c-15.57,-4.16 -31.4,1.26 -47.48,15.37 -1.37,1.22 -1.58,1.67 -0.56,-0.26 3.6,-6.95 7.56,-13.54 12.17,-19.68 5.33,-5.68 11.72,-8.12 20.95,-5.22 5.43,1.92 10.46,5.02 15.28,8.87 2.48,1.93 2.38,1.63 -0.36,0.92z"/>
   <path class="fil1" d="M19.78 148.47c1.32,-3.85 3.91,-9.23 8.42,-16.89 0.66,-1.32 2.49,-1.01 1.83,0.41l-9.79 16.59c-1.12,1.92 -1.32,2.38 -0.46,-0.11zm14.76 -20.59c-9.99,1.98 -18.21,8.37 -25.87,15.77 -0.66,0.66 -1.01,1.02 -1.52,1.78 -0.2,0.25 -0.36,0.46 -0.56,0.71 -0.61,0.86 -0.71,0.71 0.1,1.42 0.81,0.71 1.83,1.37 3,1.98 1.62,0.86 1.26,0.81 2.13,-0.71 2.13,-3.91 4.26,-7.81 6.39,-11.67 0.3,-0.61 0.35,-0.76 0.86,-1.17 2.03,-1.67 3.05,-0.91 0.82,1.83 -2.59,3.25 -4.27,7.05 -6.2,10.7 -0.91,1.63 -1.32,1.48 0.41,1.93 2.54,0.71 4.92,1.07 7.51,0.71 1.57,-0.2 1.27,-0.2 1.98,-1.52 3.85,-6.85 8.06,-14.1 10.95,-21.76z"/>
   <path class="fil1" d="M32.62 144.06l8.16 -16.54c0.31,-0.66 1.48,-0.15 1.22,0.41l-8.47 16.43c-0.61,0.97 -1.32,0.56 -0.91,-0.3zm6.85 -2.99c-0.51,1.06 0.55,1.47 1.31,0.3l7.31 -13.8c0.3,-0.61 -1.11,-0.96 -1.42,-0.25l-7.2 13.75zm-14.01 7.96c2.24,-4.77 4.62,-9.18 7.16,-12.73 2.18,-3.15 3.34,-5.94 3.75,-7.51 0.36,-1.47 -0.35,-1.17 1.27,-1.52 4.97,-1.17 9.18,-1.42 12.63,-0.76 2.18,0.4 1.78,0.3 0.71,2.13 -1.67,2.74 -2.74,4.92 -3.3,6.64 -0.7,2.13 -0.2,1.32 0.61,0.1 1.63,-2.38 3.05,-4.87 5.03,-7.25 0.81,-0.96 0.56,-0.91 1.57,-0.56l1.52 0.51c1.52,0.51 1.22,0.3 0.05,1.67 -9.03,10.15 -19.23,16.9 -29.73,20.25 -2.13,0.65 -2.18,0.96 -1.27,-0.97z"/>
   <path class="fil0" d="M152.65 169.02c0.56,-0.86 0.35,-1.72 -0.36,-2.59 -2.13,-2.28 -3.29,-4.56 -4,-6.8 -2.08,-8.82 2.68,-17.85 19.88,-27.19l31.1 -15.88c3.3,-1.67 2.89,-1.47 0.96,0.97 -3.7,4.82 -5.93,10.6 -5.93,17.75 0,17.4 -5.99,27.96 -17.61,32.32l-12.17 5.53c-3.09,1.37 -6.39,1.17 -9.44,-0.36l-2.43 -3.75z"/>
   <path class="fil1" d="M153.21 164.45c-7.72,-7.2 -1.17,-21.35 11.61,-27.75 8.58,-4.26 17.1,-8.57 25.67,-12.88 3.96,-1.98 3.1,-1.63 0.11,0.61 -15.33,11.11 -27.4,23.84 -35.11,39.06 -0.96,1.93 -0.61,2.54 -2.28,0.96z"/>
   <path class="fil1" d="M193.59 124.27c-1.27,-0.35 -22.73,19.23 -21.31,19.48 1.47,0.31 17.3,-4.36 17.3,-4.36 0.97,-0.2 1.07,0.46 0.15,0.91l-18.87 6.6c-0.91,0.3 -0.76,0.15 -1.27,0.91 -0.61,1.02 -1.27,1.98 -1.87,3 -1.37,1.77 -0.67,1.37 1.06,1.06l18.82 -1.72c0.76,0.1 1.27,1.32 0.11,1.57l-21.11 3.05c-1.27,0.2 -1.27,-0.06 -1.93,0.96 -0.91,1.32 -1.82,2.74 -2.69,4.06 -1.21,1.67 -0.86,2.03 1.63,1.82l10.45 0.16c4.16,0 3.19,1.16 0.35,1.16l-13.95 1.53c-1.57,0.2 -1.47,-0.16 -2.23,1.16 -0.31,0.56 -0.61,1.07 -0.86,1.63 -0.82,1.67 -0.46,1.31 1.32,1.06 2.94,-0.4 6.69,-1.37 10.9,-2.64 1.47,-0.46 1.53,1.07 0.87,1.22 -3.66,1.72 -7.41,3.04 -11.32,3.91 -2.94,1.06 -0.4,2.74 1.93,1.87 16.44,-6.19 27.8,-12.27 28.71,-22.57 0.46,-5.94 2.64,-14.56 3.81,-25.83z"/>
   <path class="fil0" d="M159.6 194.23c-2.03,4.11 -0.86,6.34 4.72,5.28 2.99,-1.42 5.88,-2.99 8.01,-5.73 2.64,-3.4 1.88,-5.13 -3.14,-4.87 -4.11,-0.46 -7,1.97 -9.59,5.32z"/>
   <path class="fil0" d="M224.28 200.42c1.12,-2.94 3.35,-4.21 6.6,-4.06 2.53,0.06 5.32,3.15 4.26,5.08 -0.46,1.21 -2.13,2.53 -4.01,3.8 -0.2,0.1 -0.15,0.05 -0.15,0.25l-0.05 0.61c-0.05,0.31 -0.86,0.26 -0.97,-0.05l-0.1 -0.45c-0.1,-0.26 -0.05,-0.21 -0.35,-0.15 -1.22,0.25 -2.28,0.2 -3.2,-0.16 -1.77,-1.16 -2.54,-2.74 -2.03,-4.87z"/>
   <path class="fil0" d="M159.85 212.65c0.21,-0.2 0.56,-0.31 0.81,-0.46 0.16,-0.1 0.46,-0.3 0.61,-0.4 0.15,-0.06 0.1,-0.31 0.21,-0.36 1.93,-0.81 3.55,-0.91 3.55,1.07 -0.05,0.25 0.05,0.61 0,0.86 -3.4,18.16 -3.71,32.82 -2.18,44.9 0.35,4.56 -6.75,4.66 -7,1.52 -2.29,-15.58 -1.58,-31.15 3.85,-46.72 0.05,-0.26 0.05,-0.21 0.15,-0.41z"/>
   <path class="fil0" d="M180.91 211.79c-1.22,4.87 -1.73,9.94 -2.08,14.81l-0.61 4.46c-0.16,0.77 -0.41,1.27 -0.76,1.43l-1.17 0.35c-1.57,0.61 -1.37,1.93 -0.15,2.84 0.96,0.41 1.42,0.97 1.32,1.88 -0.82,12.38 -0.21,19.78 1.67,22.83 2.64,2.84 4.57,2.84 5.43,-1.17 0.35,-1.62 0.25,-1.17 -0.51,-2.49 -2.33,-4.11 -3.25,-10.6 -3.04,-18.82 0.15,-1.21 0.56,-1.98 1.32,-2.18 5.83,-1.17 11.36,1.98 16.18,7.92 3.96,4.56 7.92,10.24 11.97,16.74 0.46,0.76 0.31,0.86 1.22,0.55 0.96,-0.3 1.88,-0.96 2.69,-2.13 0.91,-1.31 0.76,-1.16 -0.1,-2.48 -5.23,-8.47 -11.67,-15.93 -19.48,-22.17 -0.71,-0.66 0.05,-0.96 1.06,-1.62 13.09,-9.7 14.46,-21.67 -0.91,-27.15 -10.5,-3.24 -20.65,0.66 -27.65,7.97 -0.91,1.07 0.61,2.89 1.57,1.22 1.17,-2.64 5.03,-5.63 14.21,-7.46 14.76,-1.93 27.5,9.79 14.96,21.71 -2.02,1.42 -4.05,2.39 -6.08,2.9l-3.66 -0.16 -5.02 -0.61c-1.52,-0.15 -1.12,-0.15 -1.27,-1.82 -0.15,-2.84 -0.3,-5.84 0.41,-8.73 0.71,-2.79 1.27,-5.73 1.32,-8.72 -0.15,-2.14 -2.03,-2.9 -2.84,0.1z"/>
   <path class="fil0" d="M224.33 214.07c0.51,-2.94 5.43,-3.96 5.84,0.61l1.21 35.05 1.02 9.29c0.46,3.96 -4.57,2.74 -5.78,0 -2.85,-11.92 -4.22,-26.53 -2.29,-44.95z"/>
   <path class="fil0" d="M250.31 215.14c0.3,-2.44 1.47,-2.8 4.66,-2.08 6.3,0.86 13.09,3.04 18.88,6.84 10.85,8.48 12.17,17.96 2.58,28.72 -4.46,5.22 -9.08,8.98 -14,10.7 -2.79,0.76 -4.72,0.97 -6.7,0.71 -2.68,-0.4 -4.41,-2.69 -4.81,-7.41 -1.27,-12.37 -1.53,-24.85 -0.61,-37.48zm-11.52 0.2c-1.52,2.43 -4.11,0.2 -1.62,-1.32 2.79,-1.78 5.88,-3.55 9.49,-3.86 5.63,-0.5 11.05,-0.1 16.79,2.18 20.39,7.82 27.09,19.08 16.13,34.71 -5.33,7.96 -11.92,13.24 -19.33,15.47 -1.17,1.01 -2.84,0.76 -5.02,0.46 -1.52,-0.21 -2.84,-0.26 -3,0.35 -0.7,1.78 -1.87,1.32 -3.95,-0.66 -3.6,-2.89 -4.72,-19.33 -2.59,-48.4 0.1,-0.61 0.61,-2.23 -1.27,-1.72 -2.08,0.66 -4.41,1.01 -5.63,2.79z"/>
   <path class="fil0" d="M356.59 293.21c6.19,3.71 2.99,10.86 -2.54,6.34 -49.36,-34.6 -216.82,-35.15 -325.29,-4.77 -15.22,4.27 -14.56,3.96 0.15,-0.5 129.83,-39.78 284.86,-31.66 327.68,-1.07z"/>
   <path class="fil0" d="M296.2 221.04c-1.83,-0.31 -2.44,0.66 -2.99,2.58 -1.68,7.16 -2.49,14.26 -2.95,21.31 -0.15,0.97 0.06,0.81 -0.66,1.42 -1.37,1.02 -1.42,2.13 0.26,3.45 -0.56,7.46 0.76,13.4 2.89,18.62 1.17,2.64 4.72,2.23 4.87,-0.66l0.56 -0.05c2.84,-0.35 4.41,0.51 5.48,1.93 1.16,1.83 3.35,1.32 2.89,0 -1.88,-3.6 -5.23,-5.89 -10.35,-6.55 -0.81,0.11 -1.52,-0.6 -1.73,-1.31 -0.86,-3.2 -1.26,-6.7 -1.21,-10.55 0.15,-0.82 0.45,-1.38 1.32,-1.58 3.7,0.46 7.35,1.47 10.4,3.2 1.67,1.77 3.5,0 1.87,-1.62 -3.35,-2.9 -7.15,-4.52 -11.97,-5.28 -0.86,-0.21 -1.17,-0.46 -1.07,-2.08 0.21,-5.94 0.61,-11.97 1.48,-18.21 0.25,-1.53 1.01,-2.34 2.28,-2.39 4.16,-0.05 6.9,1.07 8.47,2.89 1.47,2.64 2.74,2.59 2.39,-0.86 -0.61,-2.84 -2.74,-4.16 -6.14,-4.31 -1.98,0.1 -4.11,-0.05 -6.09,0.05z"/>
  </g>
 </g>
</svg>
