<?xml version="1.0" encoding="UTF-8"?>
<!DOCTYPE svg PUBLIC "-//W3C//DTD SVG 1.1//EN" "http://www.w3.org/Graphics/SVG/1.1/DTD/svg11.dtd">
<!-- Creator: CorelDRAW 2021.5 -->
<svg xmlns="http://www.w3.org/2000/svg" xml:space="preserve" width="320px" height="270px" version="1.1" style="shape-rendering:geometricPrecision; text-rendering:geometricPrecision; image-rendering:optimizeQuality; fill-rule:evenodd; clip-rule:evenodd"
viewBox="0 0 320 270"
 xmlns:xlink="http://www.w3.org/1999/xlink"
 xmlns:xodm="http://www.corel.com/coreldraw/odm/2003">
 <defs>
  <style type="text/css">
   <![CDATA[
    .fil0 {fill:#86776F;fill-rule:nonzero}
    .fil1 {fill:#2C7656;fill-rule:nonzero}
   ]]>
  </style>
 </defs>
 <g id="Layer_x0020_1">
  <metadata id="CorelCorpID_0Corel-Layer"/>
  <path class="fil0" d="M145.55 213.49l31.02 0c-6.43,-6.43 -6.28,-16.4 -6.32,-26.35l0 0c0.38,-11.25 4.14,-24.14 5.82,-37.38l-3.98 -0.36c-0.73,6.47 -2.57,12.56 -4.81,17.71 -3.37,-8.18 -5.87,-12.64 -6.13,-22.09l-2.8 0c-1.31,7.62 -0.49,15.6 2.8,24 -5.11,-7.14 -10.5,-12.38 -16.21,-15.37l-2.89 2.92c7,5.07 13.69,15.07 13.08,26.54 0,13.75 -1.81,22.42 -9.58,30.38z"/>
  <path class="fil1" d="M226.93 103.86c0,-5.37 -3.65,-9.88 -8.61,-11.19 0.01,-0.14 0.02,-0.27 0.02,-0.4 0,-6.4 -5.19,-11.6 -11.59,-11.6 -1.05,0 -2.07,0.16 -3.04,0.42 -0.44,-6 -5.44,-10.74 -11.55,-10.74 -1.64,0 -3.2,0.34 -4.61,0.95 -0.73,-5.69 -5.59,-10.1 -11.48,-10.1 -2.75,0 -5.27,0.96 -7.26,2.55 -1.89,-4.25 -6.12,-7.24 -11.07,-7.24 -5,0 -9.29,3.02 -11.15,7.33 -0.33,-0.03 -0.66,-0.05 -1,-0.05 -3.99,0 -7.53,1.92 -9.74,4.89 -2.04,-1.57 -4.6,-2.5 -7.38,-2.5 -6.71,0 -12.15,5.44 -12.15,12.14 -6.7,0 -12.14,5.44 -12.14,12.15 0,1.48 0.26,2.9 0.75,4.21 -6.48,0.83 -11.5,6.36 -11.5,13.07 0,3.99 1.77,7.56 4.56,9.97 -1.47,2.13 -2.33,4.71 -2.33,7.49 0,1.5 0.26,2.94 0.72,4.29 -2.06,2.32 -3.31,5.38 -3.31,8.73 0,7.28 5.9,13.19 13.19,13.19 2.95,0 5.67,-0.97 7.87,-2.61 1.44,5.72 6.62,9.95 12.79,9.95 3.43,0 6.55,-1.31 8.9,-3.45 2.14,3.42 5.95,5.71 10.3,5.71 6.7,0 12.14,-5.44 12.14,-12.15 0,-0.1 0,-0.21 -0.01,-0.32 1.71,0.89 3.64,1.39 5.69,1.39 2.76,0 5.3,-0.9 7.36,-2.42 1.74,5.9 7.19,10.21 13.65,10.21 3.91,0 7.44,-1.58 10.01,-4.12 1.77,0.79 3.73,1.23 5.8,1.23 7.86,0 14.23,-6.37 14.23,-14.23 0,-2.19 -0.5,-4.27 -1.39,-6.13 5.72,-1.84 9.86,-7.2 9.86,-13.54 0,-2.65 -0.74,-5.12 -2.01,-7.25 3.29,-2.04 5.48,-5.68 5.48,-9.83z"/>
 </g>
</svg>
