<?xml version="1.0" encoding="UTF-8"?>
<!DOCTYPE svg PUBLIC "-//W3C//DTD SVG 1.1//EN" "http://www.w3.org/Graphics/SVG/1.1/DTD/svg11.dtd">
<!-- Creator: CorelDRAW 2021.5 -->
<svg xmlns="http://www.w3.org/2000/svg" xml:space="preserve" width="70px" height="70px" version="1.1" style="shape-rendering:geometricPrecision; text-rendering:geometricPrecision; image-rendering:optimizeQuality; fill-rule:evenodd; clip-rule:evenodd"
viewBox="0 0 70 70"
 xmlns:xlink="http://www.w3.org/1999/xlink"
 xmlns:xodm="http://www.corel.com/coreldraw/odm/2003">
 <defs>
  <style type="text/css">
   <![CDATA[
    .fil1 {fill:#7F7D27}
    .fil0 {fill:#262627}
   ]]>
  </style>
 </defs>
 <g id="Layer_x0020_1">
  <metadata id="CorelCorpID_0Corel-Layer"/>
  <g id="_98245648">
   <path class="fil0" d="M8.94 63.58c0.65,-1.02 0.42,-2.03 -0.42,-3.05 -2.51,-2.69 -3.89,-5.38 -4.72,-8.01 -2.45,-10.4 3.16,-21.04 23.42,-32.03l36.64 -18.71c3.88,-1.97 3.4,-1.73 1.13,1.14 -4.36,5.68 -6.99,12.49 -6.99,20.91 0,20.5 -7.05,32.93 -20.74,38.07l-14.34 6.52c-3.64,1.61 -7.53,1.37 -11.12,-0.42l-2.86 -4.42z"/>
   <path class="fil1" d="M9.59 58.2c-9.08,-8.49 -1.37,-25.16 13.69,-32.69 10.1,-5.02 20.14,-10.1 30.24,-15.18 4.66,-2.33 3.64,-1.91 0.12,0.72 -18.05,13.09 -32.27,28.09 -41.36,46.01 -1.13,2.27 -0.71,2.99 -2.69,1.14z"/>
   <path class="fil1" d="M57.16 10.87c-1.49,-0.42 -26.77,22.65 -25.1,22.95 1.74,0.36 20.39,-5.14 20.39,-5.14 1.13,-0.24 1.25,0.53 0.17,1.07l-22.23 7.77c-1.08,0.36 -0.9,0.18 -1.49,1.08 -0.72,1.19 -1.5,2.33 -2.21,3.52 -1.62,2.09 -0.78,1.62 1.25,1.26l22.17 -2.03c0.9,0.12 1.5,1.55 0.12,1.85l-24.86 3.59c-1.49,0.23 -1.49,-0.07 -2.27,1.13 -1.08,1.55 -2.15,3.23 -3.17,4.78 -1.43,1.98 -1.01,2.39 1.92,2.15l12.31 0.18c4.89,0 3.76,1.38 0.41,1.38l-16.43 1.79c-1.85,0.24 -1.73,-0.18 -2.63,1.37 -0.36,0.66 -0.72,1.26 -1.02,1.92 -0.95,1.97 -0.54,1.55 1.56,1.25 3.46,-0.48 7.89,-1.61 12.85,-3.1 1.73,-0.54 1.79,1.25 1.01,1.43 -4.3,2.03 -8.72,3.58 -13.32,4.6 -3.47,1.26 -0.48,3.23 2.27,2.21 19.36,-7.29 32.75,-14.46 33.82,-26.59 0.54,-7 3.11,-17.15 4.48,-30.42z"/>
  </g>
 </g>
</svg>
