<?xml version="1.0" standalone="no"?>
<!DOCTYPE svg PUBLIC "-//W3C//DTD SVG 20010904//EN"
 "http://www.w3.org/TR/2001/REC-SVG-20010904/DTD/svg10.dtd">
<svg version="1.0" xmlns="http://www.w3.org/2000/svg"
 width="700.000000pt" height="700.000000pt" viewBox="0 0 700.000000 700.000000"
 preserveAspectRatio="xMidYMid meet">
<metadata>
Created by potrace 1.14, written by Peter Selinger 2001-2017
</metadata>
<g transform="translate(0.000000,700.000000) scale(0.100000,-0.100000)"
fill="#000000" stroke="none">
<path d="M6353 6804 c-158 -80 -360 -183 -448 -228 -88 -45 -335 -171 -550
-280 -214 -109 -448 -229 -520 -266 -71 -37 -256 -132 -410 -210 -154 -78
-374 -191 -490 -250 -115 -59 -345 -176 -510 -260 -721 -367 -753 -384 -1010
-533 -252 -147 -599 -373 -750 -489 -311 -240 -535 -441 -720 -648 -266 -296
-447 -610 -553 -960 -16 -52 -50 -236 -58 -310 -14 -147 -5 -356 22 -505 48
-259 197 -560 402 -810 37 -44 71 -84 77 -90 6 -5 23 -26 37 -46 59 -80 72
-155 42 -239 l-16 -45 39 -60 c22 -33 70 -109 109 -168 140 -220 130 -209 246
-255 230 -92 446 -120 666 -88 171 25 282 66 662 243 41 19 140 64 220 100 80
36 174 78 210 95 225 104 707 321 770 346 115 46 260 117 368 179 95 55 232
142 242 153 3 3 21 17 40 30 227 155 529 478 697 745 243 386 414 833 517
1355 13 69 27 147 31 174 3 27 8 52 9 55 2 3 6 33 10 66 3 33 8 71 11 84 2 13
7 54 10 90 3 37 7 75 9 86 2 11 7 63 11 115 4 52 8 115 10 140 2 25 6 151 9
280 8 299 16 527 21 565 2 17 7 55 10 85 3 30 8 66 10 80 2 14 7 43 9 65 27
202 115 518 212 752 121 291 313 609 524 863 46 55 90 120 90 131 0 20 -42 2
-317 -137z"/>
</g>
</svg>
